<?xml version="1.0" encoding="utf-8"?><svg version="1.1" id="Layer_1" xmlns="http://www.w3.org/2000/svg" xmlns:xlink="http://www.w3.org/1999/xlink" x="0px" y="0px" viewBox="0 0 122.88 122.88" style="enable-background:new 0 0 122.88 122.88" xml:space="preserve"><g><path d="M61.44,13.16h-0.01v-0.02c-13.31,0-25.38,5.42-34.13,14.17c-8.74,8.75-14.16,20.81-14.16,34.1h0.03v0.04l-0.02,0 c0,13.3,5.42,25.38,14.17,34.13c8.75,8.74,20.81,14.16,34.11,14.16v-0.02l0.04,0v0.02c8.88,0,17.22-2.41,24.36-6.59 c14.31-8.38,23.92-23.92,23.93-41.68l-0.03,0v-0.04h0.03c0-13.31-5.42-25.38-14.17-34.13c-1.44-1.44-2.95-2.78-4.52-4 C82.88,16.95,72.6,13.16,61.44,13.16L61.44,13.16z M27.39,61.44l35.29,33.93l0-21.84h32.81V49.35H62.68V27.51L27.39,61.44 L27.39,61.44L27.39,61.44z M61.43,0.03V0h0.01c14.19,0,27.27,4.82,37.68,12.92c2.04,1.59,3.97,3.29,5.76,5.08 c11.1,11.1,17.97,26.45,17.98,43.43h0.03v0.04l-0.03,0c-0.01,22.59-12.22,42.34-30.4,52.99c-9.1,5.33-19.7,8.39-31,8.39v0.03 l-0.04,0v-0.03c-16.97-0.01-32.32-6.88-43.41-17.97C6.9,93.79,0.03,78.43,0.03,61.45H0v-0.04l0.03,0C0.04,44.44,6.9,29.09,17.99,18 C29.09,6.9,44.45,0.03,61.43,0.03L61.43,0.03L61.43,0.03z"/></g></svg>