<?xml version="1.0" encoding="UTF-8"?>
<!DOCTYPE svg PUBLIC "-//W3C//DTD SVG 1.1//EN" "http://www.w3.org/Graphics/SVG/1.1/DTD/svg11.dtd">
<!-- Creator: CorelDRAW 2019 (64-Bit) -->
<svg xmlns="http://www.w3.org/2000/svg" xml:space="preserve" width="210mm" height="297mm" version="1.1" style="shape-rendering:geometricPrecision; text-rendering:geometricPrecision; image-rendering:optimizeQuality; fill-rule:evenodd; clip-rule:evenodd"
viewBox="0 0 21000 29700"
 xmlns:xlink="http://www.w3.org/1999/xlink"
 xmlns:xodm="http://www.corel.com/coreldraw/odm/2003">
 <defs>
  <style type="text/css">
   <![CDATA[
    .str0 {stroke:#373435;stroke-width:20;stroke-miterlimit:22.9256}
    .fil0 {fill:#332E30}
    .fil1 {fill:#333333;fill-rule:nonzero}
   ]]>
  </style>
 </defs>
 <g id="Capa_x0020_1">
  <metadata id="CorelCorpID_0Corel-Layer"/>
  <path class="fil0 str0" d="M6348.12 6827.5c1664.96,0 3146.27,848.4 4094.11,2166.53 945.74,-1351.9 2446.38,-2225.74 4136.15,-2225.74 2861.34,0 5180.92,2505.14 5180.92,5595.39 0,2926.16 -2079.89,5327.26 -4730.06,5574.06 -584.93,2397.8 -2606.18,4166.06 -5010.06,4166.06 -2442.63,0 -4490.1,-1825.76 -5037.13,-4282.51 -2198.45,-647.4 -3814.85,-2818.86 -3814.85,-5398.4 0,-3090.25 2319.58,-5595.39 5180.92,-5595.39z"/>
  <g id="_1291135376">
   <path class="fil1" d="M10498.29 7961.08c910.89,-1028.8 1943.12,-1681.64 2995.85,-2023.43 1107.42,-358.89 2233.64,-367.43 3262.45,-102.54 1033.94,264.89 1968.75,806.64 2689.94,1543.21 953.61,974.12 1553.47,2283.2 1553.47,3763.18 0,2341.31 -1127.93,4571.53 -2977.05,6728.27 -1732.91,2021.73 -4110.11,3990.48 -6769.29,5935.3 -440.92,323 -1021.97,321.29 -1452.64,37.6l0 1.71 -5.13 -3.42 0 1.71 -3.42 -1.71 -35.89 -25.63c-762.21,-499.02 -1495.36,-1010.01 -2187.5,-1527.83 -692.14,-517.82 -1368.9,-1062.99 -2021.73,-1633.79 -3397.45,-2970.21 -5547.35,-6220.7 -5547.35,-9513.92 0,-1503.91 587.89,-2809.57 1526.12,-3773.44 726.32,-746.83 1662.84,-1283.45 2698.49,-1543.21l0 0c1023.68,-256.35 2148.19,-239.26 3255.62,117.92 1062.98,341.8 2105.46,996.34 3018.06,2020.02l0 0 0 0zm3773.44 399.91c-938.23,304.2 -1879.88,1051.02 -2650.64,2377.19 -107.67,203.37 -273.44,377.69 -487.06,500.73 -608.4,350.34 -1385.99,140.14 -1734.62,-468.26 -769.04,-1336.43 -1732.91,-2096.92 -2696.78,-2406.25 -634.03,-203.37 -1274.9,-213.62 -1859.38,-68.36l0 0 -3.42 0c-572.51,141.85 -1088.62,437.5 -1486.82,845.95 -490.48,504.15 -798.1,1196.29 -798.1,1999.51 0,2483.15 1809.81,5096.19 4665.53,7593.02 560.55,490.48 1187.74,994.63 1871.34,1505.62 446.04,334.96 914.31,669.92 1374.02,980.96 2226.81,-1667.97 4192.14,-3337.65 5622.56,-5007.32 1466.31,-1708.98 2358.4,-3404.3 2358.4,-5072.27 0,-777.59 -314.45,-1466.31 -813.48,-1977.29 -406.74,-413.57 -927.98,-717.77 -1503.91,-864.75 -581.03,-150.4 -1221.9,-143.56 -1857.64,61.52l0 0 0 0z"/>
  </g>
 </g>
</svg>
