<?xml version="1.0" encoding="UTF-8"?>
<!DOCTYPE svg PUBLIC "-//W3C//DTD SVG 1.1//EN" "http://www.w3.org/Graphics/SVG/1.1/DTD/svg11.dtd">
<!-- Creator: CorelDRAW 2019 (64-Bit) -->
<svg xmlns="http://www.w3.org/2000/svg" xml:space="preserve" width="33.8666mm" height="33.8666mm" version="1.1" style="shape-rendering:geometricPrecision; text-rendering:geometricPrecision; image-rendering:optimizeQuality; fill-rule:evenodd; clip-rule:evenodd"
viewBox="0 0 3386.66 3386.66"
 xmlns:xlink="http://www.w3.org/1999/xlink"
 xmlns:xodm="http://www.corel.com/coreldraw/odm/2003">
 <defs>
  <style type="text/css">
   <![CDATA[
    .str0 {stroke:#0C7489;stroke-width:8.47;stroke-miterlimit:22.9256}
    .fil0 {fill:#119DA4}
    .fil1 {fill:#119DA4;fill-rule:nonzero}
   ]]>
  </style>
 </defs>
 <g id="Capa_x0020_1">
  <metadata id="CorelCorpID_0Corel-Layer"/>
  <g id="_1198072064">
   <g>
    <path class="fil0 str0" d="M677.09 2167.62l0 541.3c0.07,0.7 0.11,1.4 0.11,2.11 0,15.34 -18.24,27.77 -40.75,27.77 -22.51,0 -40.76,-12.43 -40.76,-27.77 0,-0.71 0.04,-1.41 0.12,-2.11l0 -541.3c-0.08,-0.69 -0.12,-1.4 -0.12,-2.11 0,-15.33 18.25,-27.77 40.76,-27.77 22.51,0 40.75,12.44 40.75,27.77 0,0.71 -0.04,1.42 -0.11,2.11z"/>
    <path class="fil0 str0" d="M784.86 1729.97l0 1169.4c0.07,1.5 0.11,3.02 0.11,4.55 0,33.13 -18.24,59.99 -40.75,59.99 -22.51,0 -40.76,-26.86 -40.76,-59.99 0,-1.53 0.04,-3.05 0.11,-4.55l0 -1169.4c-0.07,-1.5 -0.11,-3.02 -0.11,-4.56 0,-33.13 18.25,-59.99 40.76,-59.99 22.51,0 40.75,26.86 40.75,59.99 0,1.54 -0.04,3.06 -0.11,4.56z"/>
    <path class="fil0 str0" d="M895.17 2050.61l0 903.85c0.07,1.16 0.11,2.34 0.11,3.52 0,25.61 -18.24,46.37 -40.75,46.37 -22.51,0 -40.76,-20.76 -40.76,-46.37 0,-1.18 0.04,-2.36 0.11,-3.52l0 -903.85c-0.07,-1.16 -0.11,-2.33 -0.11,-3.52 0,-25.6 18.25,-46.36 40.76,-46.36 22.51,0 40.75,20.76 40.75,46.36 0,1.19 -0.04,2.36 -0.11,3.52z"/>
    <path class="fil0 str0" d="M1005.23 2055.3l0 903.85c0.07,1.16 0.11,2.34 0.11,3.52 0,25.61 -18.24,46.37 -40.75,46.37 -22.51,0 -40.76,-20.76 -40.76,-46.37 0,-1.18 0.04,-2.36 0.12,-3.52l0 -903.85c-0.08,-1.16 -0.12,-2.33 -0.12,-3.52 0,-25.6 18.25,-46.36 40.76,-46.36 22.51,0 40.75,20.76 40.75,46.36 0,1.19 -0.04,2.36 -0.11,3.52z"/>
    <path class="fil0 str0" d="M1110.59 2417.22l0 530.87c0.07,0.68 0.11,1.37 0.11,2.07 0,15.04 -18.24,27.23 -40.75,27.23 -22.51,0 -40.76,-12.19 -40.76,-27.23 0,-0.7 0.04,-1.39 0.12,-2.07l0 -530.87c-0.08,-0.68 -0.12,-1.37 -0.12,-2.07 0,-15.04 18.25,-27.23 40.76,-27.23 22.51,0 40.75,12.19 40.75,27.23 0,0.7 -0.04,1.39 -0.11,2.07z"/>
    <path class="fil0 str0" d="M894.39 1475.3l0 247.3c0.08,0.31 0.12,0.63 0.12,0.96 0,7 -18.25,12.68 -40.76,12.68 -22.51,0 -40.76,-5.68 -40.76,-12.68 0,-0.33 0.04,-0.65 0.12,-0.96l0 -247.3c-0.08,-0.32 -0.12,-0.64 -0.12,-0.96 0,-7.01 18.25,-12.69 40.76,-12.69 22.51,0 40.76,5.68 40.76,12.69 0,0.32 -0.04,0.64 -0.12,0.96z"/>
    <path class="fil0 str0" d="M1006.54 1312.47l0 247.29c0.08,0.32 0.11,0.64 0.11,0.97 0,7 -18.24,12.68 -40.75,12.68 -22.51,0 -40.76,-5.68 -40.76,-12.68 0,-0.33 0.04,-0.65 0.12,-0.97l0 -247.29c-0.08,-0.32 -0.12,-0.64 -0.12,-0.96 0,-7.01 18.25,-12.69 40.76,-12.69 22.51,0 40.75,5.68 40.75,12.69 0,0.32 -0.03,0.64 -0.11,0.96z"/>
    <path class="fil0 str0" d="M1114.38 1146.4l0 247.3c0.07,0.31 0.11,0.64 0.11,0.96 0,7.01 -18.25,12.69 -40.76,12.69 -22.51,0 -40.75,-5.68 -40.75,-12.69 0,-0.32 0.04,-0.65 0.11,-0.96l0 -247.3c-0.07,-0.31 -0.11,-0.64 -0.11,-0.96 0,-7.01 18.24,-12.69 40.75,-12.69 22.51,0 40.76,5.68 40.76,12.69 0,0.32 -0.04,0.65 -0.11,0.96z"/>
    <path class="fil0 str0" d="M1226.53 914.59l0 411.8c0.07,0.52 0.11,1.06 0.11,1.6 0,11.67 -18.25,21.12 -40.76,21.12 -22.51,0 -40.75,-9.45 -40.75,-21.12 0,-0.54 0.04,-1.08 0.11,-1.6l0 -411.8c-0.07,-0.53 -0.11,-1.06 -0.11,-1.6 0,-11.67 18.24,-21.13 40.75,-21.13 22.51,0 40.76,9.46 40.76,21.13 0,0.54 -0.04,1.07 -0.11,1.6z"/>
    <path class="fil0 str0" d="M1191.57 755.13c22.51,0 40.76,18.25 40.76,40.76 0,22.51 -18.25,40.76 -40.76,40.76 -22.51,0 -40.76,-18.25 -40.76,-40.76 0,-22.51 18.25,-40.76 40.76,-40.76z"/>
    <path class="fil0 str0" d="M1338.67 960.58l0 319.13c0.08,0.41 0.12,0.82 0.12,1.24 0,9.04 -18.25,16.37 -40.76,16.37 -22.51,0 -40.75,-7.33 -40.75,-16.37 0,-0.42 0.04,-0.83 0.11,-1.24l0 -319.13c-0.07,-0.41 -0.11,-0.83 -0.11,-1.25 0,-9.04 18.24,-16.37 40.75,-16.37 22.51,0 40.76,7.33 40.76,16.37 0,0.42 -0.04,0.84 -0.12,1.25z"/>
    <path class="fil0 str0" d="M1451.9 717.22l0 508.88c0.08,0.66 0.12,1.32 0.12,1.98 0,14.42 -18.25,26.11 -40.76,26.11 -22.51,0 -40.76,-11.69 -40.76,-26.11 0,-0.66 0.04,-1.32 0.12,-1.98l0 -508.88c-0.08,-0.66 -0.12,-1.32 -0.12,-1.98 0,-14.42 18.25,-26.11 40.76,-26.11 22.51,0 40.76,11.69 40.76,26.11 0,0.66 -0.04,1.32 -0.12,1.98z"/>
    <path class="fil0 str0" d="M1562.97 908.2l0 315.63c0.08,0.41 0.12,0.82 0.12,1.23 0,8.94 -18.25,16.19 -40.76,16.19 -22.51,0 -40.76,-7.25 -40.76,-16.19 0,-0.41 0.04,-0.82 0.12,-1.23l0 -315.63c-0.08,-0.4 -0.12,-0.81 -0.12,-1.22 0,-8.95 18.25,-16.2 40.76,-16.2 22.51,0 40.76,7.25 40.76,16.2 0,0.41 -0.04,0.82 -0.12,1.22z"/>
    <path class="fil0 str0" d="M1671.89 959.23l0 243.76c0.07,0.31 0.11,0.63 0.11,0.95 0,6.91 -18.24,12.5 -40.75,12.5 -22.51,0 -40.76,-5.59 -40.76,-12.5 0,-0.32 0.04,-0.64 0.12,-0.95l0 -243.76c-0.08,-0.31 -0.12,-0.63 -0.12,-0.95 0,-6.9 18.25,-12.5 40.76,-12.5 22.51,0 40.75,5.6 40.75,12.5 0,0.32 -0.04,0.64 -0.11,0.95z"/>
    <path class="fil0 str0" d="M1632.62 790.72c22.51,0 40.76,18.25 40.76,40.76 0,22.5 -18.25,40.75 -40.76,40.75 -22.51,0 -40.76,-18.25 -40.76,-40.75 0,-22.51 18.25,-40.76 40.76,-40.76z"/>
    <path class="fil0 str0" d="M1780.8 985.77l0 216.56c0.08,0.28 0.12,0.56 0.12,0.85 0,6.13 -18.25,11.11 -40.76,11.11 -22.51,0 -40.76,-4.98 -40.76,-11.11 0,-0.29 0.04,-0.57 0.12,-0.85l0 -216.56c-0.08,-0.28 -0.12,-0.56 -0.12,-0.84 0,-6.14 18.25,-11.11 40.76,-11.11 22.51,0 40.76,4.97 40.76,11.11 0,0.28 -0.04,0.56 -0.12,0.84z"/>
    <path class="fil0 str0" d="M1897.27 931.64l0 290.86c0.07,0.37 0.11,0.75 0.11,1.13 0,8.24 -18.25,14.92 -40.76,14.92 -22.51,0 -40.75,-6.68 -40.75,-14.92 0,-0.38 0.04,-0.76 0.11,-1.13l0 -290.86c-0.07,-0.37 -0.11,-0.75 -0.11,-1.13 0,-8.24 18.24,-14.92 40.75,-14.92 22.51,0 40.76,6.68 40.76,14.92 0,0.38 -0.04,0.76 -0.11,1.13z"/>
    <path class="fil0 str0" d="M2005.1 1066.23l0 179.66c0.08,0.23 0.12,0.47 0.12,0.7 0,5.09 -18.25,9.22 -40.76,9.22 -22.51,0 -40.76,-4.13 -40.76,-9.22 0,-0.23 0.04,-0.47 0.12,-0.7l0 -179.66c-0.08,-0.23 -0.12,-0.46 -0.12,-0.7 0,-5.09 18.25,-9.22 40.76,-9.22 22.51,0 40.76,4.13 40.76,9.22 0,0.24 -0.04,0.47 -0.12,0.7z"/>
    <path class="fil0 str0" d="M1895.44 701.29l0 147.14c0.07,0.18 0.11,0.38 0.11,0.57 0,4.17 -18.24,7.55 -40.75,7.55 -22.51,0 -40.76,-3.38 -40.76,-7.55 0,-0.19 0.04,-0.39 0.11,-0.57l0 -147.14c-0.07,-0.19 -0.11,-0.38 -0.11,-0.57 0,-4.17 18.25,-7.55 40.76,-7.55 22.51,0 40.75,3.38 40.75,7.55 0,0.19 -0.04,0.38 -0.11,0.57z"/>
    <path class="fil0 str0" d="M1560.61 388.03l0 188.52c0.07,0.24 0.11,0.49 0.11,0.74 0,5.34 -18.25,9.67 -40.76,9.67 -22.51,0 -40.75,-4.33 -40.75,-9.67 0,-0.25 0.04,-0.5 0.11,-0.74l0 -188.52c-0.07,-0.25 -0.11,-0.49 -0.11,-0.74 0,-5.34 18.24,-9.67 40.75,-9.67 22.51,0 40.76,4.33 40.76,9.67 0,0.25 -0.04,0.49 -0.11,0.74z"/>
    <path class="fil0 str0" d="M2118.33 988.63l0 295.1c0.08,0.38 0.11,0.77 0.11,1.15 0,8.36 -18.24,15.14 -40.75,15.14 -22.51,0 -40.76,-6.78 -40.76,-15.14 0,-0.38 0.04,-0.77 0.12,-1.15l0 -295.1c-0.08,-0.38 -0.12,-0.76 -0.12,-1.15 0,-8.36 18.25,-15.14 40.76,-15.14 22.51,0 40.75,6.78 40.75,15.14 0,0.39 -0.03,0.77 -0.11,1.15z"/>
    <path class="fil0 str0" d="M2229.4 1097.02l0 246.55c0.08,0.31 0.12,0.63 0.12,0.96 0,6.98 -18.25,12.64 -40.76,12.64 -22.51,0 -40.76,-5.66 -40.76,-12.64 0,-0.33 0.04,-0.65 0.12,-0.96l0 -246.55c-0.08,-0.32 -0.12,-0.64 -0.12,-0.96 0,-6.99 18.25,-12.65 40.76,-12.65 22.51,0 40.76,5.66 40.76,12.65 0,0.32 -0.04,0.64 -0.12,0.96z"/>
    <path class="fil0 str0" d="M2229.4 879.72l0 138.87c0.08,0.18 0.12,0.36 0.12,0.55 0,3.93 -18.25,7.12 -40.76,7.12 -22.51,0 -40.76,-3.19 -40.76,-7.12 0,-0.19 0.04,-0.37 0.12,-0.55l0 -138.87c-0.08,-0.18 -0.12,-0.36 -0.12,-0.54 0,-3.94 18.25,-7.13 40.76,-7.13 22.51,0 40.76,3.19 40.76,7.13 0,0.18 -0.04,0.36 -0.12,0.54z"/>
    <path class="fil0 str0" d="M2340.95 1145.25l0 251.05c0.07,0.32 0.11,0.65 0.11,0.97 0,7.12 -18.24,12.88 -40.75,12.88 -22.51,0 -40.76,-5.76 -40.76,-12.88 0,-0.32 0.04,-0.65 0.12,-0.97l0 -251.05c-0.08,-0.32 -0.12,-0.65 -0.12,-0.97 0,-7.12 18.25,-12.88 40.76,-12.88 22.51,0 40.75,5.76 40.75,12.88 0,0.32 -0.04,0.65 -0.11,0.97z"/>
    <path class="fil0 str0" d="M2450.94 1307.01l0 251.04c0.08,0.32 0.12,0.65 0.12,0.98 0,7.11 -18.25,12.88 -40.76,12.88 -22.51,0 -40.76,-5.77 -40.76,-12.88 0,-0.33 0.04,-0.66 0.12,-0.98l0 -251.04c-0.08,-0.33 -0.12,-0.65 -0.12,-0.98 0,-7.11 18.25,-12.88 40.76,-12.88 22.51,0 40.76,5.77 40.76,12.88 0,0.33 -0.04,0.65 -0.12,0.98z"/>
    <path class="fil0 str0" d="M2562.01 1467.95l0 251.05c0.08,0.32 0.12,0.64 0.12,0.97 0,7.12 -18.25,12.88 -40.76,12.88 -22.51,0 -40.75,-5.76 -40.75,-12.88 0,-0.33 0.03,-0.65 0.11,-0.97l0 -251.05c-0.08,-0.32 -0.11,-0.65 -0.11,-0.98 0,-7.11 18.24,-12.87 40.75,-12.87 22.51,0 40.76,5.76 40.76,12.87 0,0.33 -0.04,0.66 -0.12,0.98z"/>
    <path class="fil0 str0" d="M2706.09 2161.15l0 541.3c-0.08,0.7 -0.12,1.4 -0.12,2.11 0,15.34 19.03,27.77 42.5,27.77 23.47,0 42.5,-12.43 42.5,-27.77 0,-0.71 -0.04,-1.41 -0.12,-2.11l0 -541.3c0.08,-0.7 0.12,-1.4 0.12,-2.11 0,-15.33 -19.03,-27.77 -42.5,-27.77 -23.47,0 -42.5,12.44 -42.5,27.77 0,0.71 0.04,1.41 0.12,2.11z"/>
    <path class="fil0 str0" d="M2593.72 1723.5l0 1169.4c-0.08,1.5 -0.12,3.02 -0.12,4.55 0,33.13 19.03,59.99 42.5,59.99 23.47,0 42.5,-26.86 42.5,-59.99 0,-1.53 -0.05,-3.05 -0.12,-4.55l0 -1169.4c0.07,-1.5 0.12,-3.03 0.12,-4.56 0,-33.13 -19.03,-59.99 -42.5,-59.99 -23.47,0 -42.5,26.86 -42.5,59.99 0,1.53 0.04,3.06 0.12,4.56z"/>
    <path class="fil0 str0" d="M2478.7 2044.14l0 903.85c-0.08,1.16 -0.12,2.34 -0.12,3.52 0,25.61 19.02,46.37 42.49,46.37 23.48,0 42.5,-20.76 42.5,-46.37 0,-1.18 -0.04,-2.36 -0.12,-3.52l0 -903.85c0.08,-1.16 0.12,-2.33 0.12,-3.52 0,-25.61 -19.02,-46.36 -42.5,-46.36 -23.47,0 -42.49,20.75 -42.49,46.36 0,1.19 0.04,2.36 0.12,3.52z"/>
    <path class="fil0 str0" d="M2363.93 2048.83l0 903.85c-0.08,1.16 -0.12,2.34 -0.12,3.52 0,25.61 19.03,46.37 42.5,46.37 23.47,0 42.5,-20.76 42.5,-46.37 0,-1.18 -0.04,-2.36 -0.12,-3.52l0 -903.85c0.08,-1.16 0.12,-2.33 0.12,-3.52 0,-25.61 -19.03,-46.36 -42.5,-46.36 -23.47,0 -42.5,20.75 -42.5,46.36 0,1.19 0.04,2.36 0.12,3.52z"/>
    <path class="fil0 str0" d="M2254.07 2410.75l0 530.87c-0.08,0.68 -0.12,1.37 -0.12,2.07 0,15.04 19.03,27.23 42.5,27.23 23.47,0 42.5,-12.19 42.5,-27.23 0,-0.7 -0.04,-1.39 -0.12,-2.07l0 -530.87c0.08,-0.68 0.12,-1.37 0.12,-2.07 0,-15.04 -19.03,-27.23 -42.5,-27.23 -23.47,0 -42.5,12.19 -42.5,27.23 0,0.7 0.04,1.39 0.12,2.07z"/>
    <path class="fil0 str0" d="M2074.94 619.95c22.51,0 40.76,18.25 40.76,40.76 0,22.51 -18.25,40.76 -40.76,40.76 -22.51,0 -40.76,-18.25 -40.76,-40.76 0,-22.51 18.25,-40.76 40.76,-40.76z"/>
   </g>
   <path class="fil1 str0" d="M1913.89 2327.75c86.98,86.99 130.47,191.01 130.47,312.08 0,71.71 -24.39,132.83 -73.17,183.37 -48.78,50.55 -107.84,75.82 -177.2,75.82l-178.08 0c-58.77,0 -109.9,-18.22 -153.39,-54.66 49.37,55.25 111.67,82.87 186.89,82.87l176.32 0c70.53,0 130.18,-25.27 178.96,-75.82 48.78,-50.54 73.17,-111.08 73.17,-181.6 0,-76.41 -14.39,-140.76 -43.19,-193.07 -28.8,-52.31 -69.06,-101.97 -120.78,-148.99zm102.26 -287.39l-172.79 0 0 29.97 206.29 0 0 -149.87c0,-82.28 -33.5,-150.46 -100.5,-204.53 44.67,50.55 67,109.32 67,176.32l0 148.11zm-253.89 835.74c69.35,0 129,-25.57 178.96,-76.7 49.96,-51.13 74.93,-111.96 74.93,-182.49 0,-64.65 -11.75,-123.13 -35.26,-175.43 -23.51,-52.31 -52.89,-94.33 -88.16,-126.07 -35.26,-31.74 -73.76,-64.94 -115.49,-99.62 -41.72,-34.67 -80.22,-66.41 -115.48,-95.21 -35.27,-28.8 -64.65,-66.12 -88.16,-111.96 -23.51,-45.84 -35.27,-96.39 -35.27,-151.63 0,-28.21 9.41,-52.31 28.22,-72.29 18.8,-19.99 42.31,-29.98 70.52,-29.98l42.32 0c28.21,0 53.48,11.17 75.81,33.5 -19.98,-5.87 -34.67,-8.81 -44.07,-8.81l-40.56 0c-28.21,0 -52.6,9.99 -73.17,29.97 -20.57,19.98 -30.85,44.08 -30.85,72.29 0,99.91 47.6,192.19 142.81,276.82 -72.88,-69.35 -109.31,-152.22 -109.31,-248.61 0,-28.21 9.69,-52.01 29.09,-71.41 19.39,-19.39 43.2,-29.09 71.41,-29.09l42.31 0c12.93,0 22.34,1.18 28.21,3.53 7.06,11.75 10.58,26.44 10.58,44.08l0 158.68 204.53 0 0 -148.1c0,-70.53 -24.39,-131.07 -73.17,-181.61 -48.78,-50.55 -108.44,-75.82 -178.96,-75.82l-149.87 0c-68.18,0 -127.25,25.27 -177.2,75.82 -49.96,50.54 -74.94,111.08 -74.94,181.61 0,88.15 19.4,161.62 58.19,220.39 38.79,58.77 92.86,115.78 162.21,171.03 10.58,8.23 30.27,23.8 59.07,46.72 28.79,22.92 50.83,40.85 66.11,53.78 86.99,78.75 130.48,168.09 130.48,268 0,28.21 -9.7,52.6 -29.09,73.17 -19.4,20.57 -42.61,30.86 -69.65,30.86l-72.29 0c-3.52,0 -8.23,-0.88 -14.1,-2.65 -5.88,-1.76 -9.41,-2.64 -10.58,-2.64 -8.23,-11.76 -12.34,-27.04 -12.34,-45.84l0 -158.69 -33.5 0 0 128.71c0,23.51 9.4,47.02 28.21,70.53 -37.62,-16.46 -56.43,-47.61 -56.43,-93.45l0 -160.45 -206.29 0 0 149.87c0,70.53 24.98,131.36 74.94,182.49 49.95,51.13 109.02,76.7 177.2,76.7l178.08 0z"/>
  </g>
 </g>
</svg>
