<?xml version="1.0" encoding="UTF-8"?>
<!DOCTYPE svg PUBLIC "-//W3C//DTD SVG 1.1//EN" "http://www.w3.org/Graphics/SVG/1.1/DTD/svg11.dtd">
<!-- Creator: CorelDRAW 2019 (64-Bit) -->
<svg xmlns="http://www.w3.org/2000/svg" xml:space="preserve" width="33.8666mm" height="33.8666mm" version="1.1" style="shape-rendering:geometricPrecision; text-rendering:geometricPrecision; image-rendering:optimizeQuality; fill-rule:evenodd; clip-rule:evenodd"
viewBox="0 0 3386.66 3386.66"
 xmlns:xlink="http://www.w3.org/1999/xlink"
 xmlns:xodm="http://www.corel.com/coreldraw/odm/2003">
 <defs>
  <style type="text/css">
   <![CDATA[
    .str1 {stroke:#0C7489;stroke-width:8.47;stroke-miterlimit:22.9256}
    .str0 {stroke:#D7D9CE;stroke-width:8.47;stroke-miterlimit:22.9256}
    .fil1 {fill:#119DA4}
    .fil0 {fill:#FEFEFE;fill-rule:nonzero}
    .fil2 {fill:#119DA4;fill-rule:nonzero}
   ]]>
  </style>
 </defs>
 <g id="Capa_x0020_1">
  <metadata id="CorelCorpID_0Corel-Layer"/>
  <g id="_1198033568">
   <path class="fil0 str0" d="M440.99 3060.33l31.68 -2.85c1.48,12.82 4.98,23.32 10.5,31.57 5.51,8.18 14.06,14.83 25.63,19.93 11.56,5.04 24.62,7.59 39.09,7.59 12.88,0 24.21,-1.9 34.05,-5.75 9.85,-3.86 17.15,-9.14 21.95,-15.84 4.81,-6.71 7.24,-14 7.24,-21.84 0,-7.95 -2.31,-14.89 -6.94,-20.88 -4.63,-5.93 -12.28,-10.91 -22.96,-15.01 -6.82,-2.61 -21.95,-6.76 -45.38,-12.4 -23.43,-5.63 -39.81,-10.91 -49.18,-15.89 -12.16,-6.41 -21.18,-14.36 -27.11,-23.79 -5.99,-9.44 -8.96,-20.05 -8.96,-31.74 0,-12.93 3.68,-24.98 10.97,-36.13 7.3,-11.21 17.92,-19.7 31.98,-25.51 14,-5.82 29.6,-8.72 46.75,-8.72 18.86,0 35.54,3.02 49.95,9.13 14.42,6.05 25.51,15.01 33.28,26.88 7.77,11.8 11.93,25.21 12.52,40.16l-32.39 2.49c-1.72,-16.07 -7.6,-28.23 -17.62,-36.42 -10.03,-8.25 -24.86,-12.34 -44.44,-12.34 -20.4,0 -35.3,3.74 -44.61,11.21 -9.31,7.47 -14,16.49 -14,27.05 0,9.14 3.32,16.67 9.91,22.6 6.52,5.88 23.43,11.99 50.84,18.16 27.41,6.23 46.21,11.63 56.42,16.25 14.77,6.82 25.74,15.43 32.8,25.93 7.06,10.44 10.56,22.48 10.56,36.13 0,13.58 -3.85,26.28 -11.62,38.26 -7.78,11.99 -18.87,21.3 -33.4,27.94 -14.54,6.65 -30.85,9.97 -49.07,9.97 -23.02,0 -42.29,-3.38 -57.84,-10.08 -15.6,-6.71 -27.76,-16.79 -36.6,-30.32 -8.9,-13.47 -13.53,-28.71 -14,-45.74zm244.53 152.7l0 -255.57 28.48 0 0 24.27c6.7,-9.38 14.3,-16.44 22.78,-21.12 8.42,-4.69 18.69,-7.06 30.73,-7.06 15.78,0 29.66,4.03 41.7,12.16 12.05,8.07 21.12,19.52 27.29,34.23 6.11,14.77 9.2,30.91 9.2,48.53 0,18.8 -3.38,35.77 -10.15,50.89 -6.76,15.07 -16.61,26.64 -29.54,34.71 -12.87,8.01 -26.46,12.04 -40.7,12.04 -10.44,0 -19.81,-2.19 -28.05,-6.58 -8.31,-4.39 -15.07,-9.91 -20.41,-16.61l0 90.11 -31.33 0zm28.48 -162.07c0,23.67 4.8,41.17 14.36,52.5 9.6,11.33 21.23,17.03 34.88,17.03 13.88,0 25.74,-5.88 35.59,-17.62 9.91,-11.75 14.83,-29.9 14.83,-54.52 0,-23.5 -4.8,-41.05 -14.47,-52.74 -9.67,-11.69 -21.18,-17.5 -34.59,-17.5 -13.29,0 -25.03,6.22 -35.24,18.62 -10.26,12.46 -15.36,30.5 -15.36,54.23zm157.74 -1.13c0,-34.11 9.5,-59.38 28.54,-75.82 15.84,-13.64 35.24,-20.46 58.08,-20.46 25.33,0 46.09,8.3 62.23,24.91 16.08,16.56 24.14,39.51 24.14,68.76 0,23.73 -3.56,42.36 -10.67,55.94 -7.12,13.59 -17.5,24.15 -31.15,31.68 -13.58,7.54 -28.47,11.27 -44.55,11.27 -25.87,0 -46.75,-8.24 -62.71,-24.79 -15.96,-16.55 -23.91,-40.4 -23.91,-71.49zm32.04 0.06c0,23.61 5.16,41.29 15.48,52.98 10.38,11.74 23.38,17.62 39.1,17.62 15.54,0 28.47,-5.88 38.86,-17.68 10.32,-11.81 15.48,-29.78 15.48,-53.93 0,-22.78 -5.22,-40.04 -15.6,-51.73 -10.38,-11.75 -23.32,-17.62 -38.74,-17.62 -15.72,0 -28.72,5.81 -39.1,17.5 -10.32,11.69 -15.48,29.31 -15.48,52.86zm177.68 -126.96l0 -35.59 31.32 0 0 35.59 -31.32 0zm0 219.27l0 -184.74 31.32 0 0 184.74 -31.32 0zm78.37 0l0 -254.86 31.32 0 0 254.86 -31.32 0zm205.79 -59.8l32.4 4.27c-5.05,18.81 -14.48,33.46 -28.24,43.84 -13.77,10.38 -31.33,15.6 -52.74,15.6 -26.94,0 -48.29,-8.3 -64.07,-24.91 -15.79,-16.55 -23.67,-39.87 -23.67,-69.83 0,-30.97 7.95,-55.05 23.9,-72.14 15.96,-17.14 36.67,-25.68 62.12,-25.68 24.62,0 44.73,8.36 60.33,25.15 15.6,16.79 23.43,40.4 23.43,70.83 0,1.84 -0.06,4.63 -0.18,8.31l-137.57 0c1.19,20.23 6.88,35.77 17.21,46.51 10.26,10.74 23.13,16.14 38.5,16.14 11.45,0 21.24,-3.03 29.3,-9.08 8.13,-6.05 14.54,-15.72 19.28,-29.01zm-102.51 -50.19l102.87 0c-1.37,-15.54 -5.34,-27.17 -11.8,-34.94 -9.91,-12.04 -22.85,-18.09 -38.69,-18.09 -14.35,0 -26.4,4.8 -36.18,14.41 -9.73,9.61 -15.13,22.48 -16.2,38.62zm174.12 109.99l0 -184.74 28.12 0 0 28.3c7.18,-13.11 13.82,-21.77 19.93,-25.92 6.11,-4.22 12.82,-6.29 20.11,-6.29 10.56,0 21.3,3.32 32.22,9.9l-11.16 28.9c-7.59,-4.28 -15.18,-6.41 -22.78,-6.41 -6.82,0 -12.93,2.07 -18.33,6.17 -5.4,4.09 -9.25,9.79 -11.56,17.08 -3.51,11.1 -5.23,23.26 -5.23,36.49l0 96.52 -31.32 0zm223.48 0l0 -254.86 171.92 0 0 29.9 -138.11 0 0 79.38 119.6 0 0 29.9 -119.6 0 0 115.68 -33.81 0zm211.73 -219.27l0 -35.59 31.32 0 0 35.59 -31.32 0zm0 219.27l0 -184.74 31.32 0 0 184.74 -31.32 0zm129.56 0l-69.7 -184.74 33.52 0 39.51 110.64c4.27,11.93 8.24,24.32 11.86,37.2 2.79,-9.73 6.64,-21.42 11.69,-35.12l41.05 -112.72 32.15 0 -69.94 184.74 -30.14 0zm253.49 -59.8l32.4 4.27c-5.05,18.81 -14.48,33.46 -28.24,43.84 -13.77,10.38 -31.33,15.6 -52.74,15.6 -26.94,0 -48.29,-8.3 -64.07,-24.91 -15.79,-16.55 -23.67,-39.87 -23.67,-69.83 0,-30.97 7.95,-55.05 23.9,-72.14 15.96,-17.14 36.67,-25.68 62.12,-25.68 24.62,0 44.73,8.36 60.33,25.15 15.6,16.79 23.43,40.4 23.43,70.83 0,1.84 -0.06,4.63 -0.18,8.31l-137.57 0c1.19,20.23 6.88,35.77 17.21,46.51 10.26,10.74 23.13,16.14 38.5,16.14 11.45,0 21.24,-3.03 29.31,-9.08 8.12,-6.05 14.53,-15.72 19.27,-29.01zm-102.51 -50.19l102.87 0c-1.37,-15.54 -5.34,-27.17 -11.8,-34.94 -9.91,-12.04 -22.85,-18.09 -38.69,-18.09 -14.35,0 -26.4,4.8 -36.18,14.41 -9.73,9.61 -15.13,22.48 -16.2,38.62zm282.98 109.99l0 -254.86 33.82 0 0 254.86 -33.82 0zm89.29 0l0 -184.74 28.12 0 0 26.22c13.52,-20.11 33.1,-30.13 58.67,-30.13 11.15,0 21.35,2.01 30.67,5.99 9.31,3.97 16.31,9.25 20.94,15.72 4.63,6.47 7.89,14.18 9.73,23.08 1.13,5.81 1.72,15.95 1.72,30.43l0 113.43 -31.33 0 0 -112.24c0,-12.76 -1.18,-22.31 -3.61,-28.6 -2.44,-6.29 -6.77,-11.33 -12.94,-15.13 -6.16,-3.73 -13.46,-5.63 -21.77,-5.63 -13.29,0 -24.74,4.21 -34.4,12.69 -9.68,8.43 -14.48,24.51 -14.48,48.11l0 100.8 -31.32 0zm318.63 -67.63l30.61 4.27c-3.38,21.06 -11.92,37.49 -25.75,49.42 -13.82,11.92 -30.85,17.85 -50.96,17.85 -25.21,0 -45.5,-8.24 -60.8,-24.74 -15.37,-16.49 -23.02,-40.1 -23.02,-70.83 0,-19.93 3.32,-37.31 9.9,-52.26 6.59,-14.89 16.62,-26.11 30.14,-33.52 13.47,-7.47 28.12,-11.21 44.02,-11.21 19.99,0 36.43,5.04 49.12,15.18 12.76,10.15 20.95,24.56 24.5,43.19l-30.25 4.63c-2.91,-12.4 -8.01,-21.71 -15.43,-28 -7.35,-6.23 -16.25,-9.37 -26.69,-9.37 -15.79,0 -28.6,5.63 -38.5,16.9 -9.85,11.33 -14.78,29.13 -14.78,53.57 0,24.8 4.75,42.77 14.24,53.99 9.55,11.21 21.95,16.85 37.2,16.85 12.34,0 22.6,-3.74 30.79,-11.28 8.24,-7.47 13.46,-19.04 15.66,-34.64zm66.2 67.63l0 -35.6 35.6 0 0 35.6 -35.6 0z"/>
   <g>
    <path class="fil1 str1" d="M632.61 1934.36l0 565c0.08,0.72 0.13,1.46 0.13,2.2 0,16 -19.05,28.98 -42.55,28.98 -23.49,0 -42.54,-12.98 -42.54,-28.98 0,-0.74 0.04,-1.48 0.12,-2.2l0 -565c-0.08,-0.72 -0.12,-1.46 -0.12,-2.2 0,-16 19.05,-28.98 42.54,-28.98 23.5,0 42.55,12.98 42.55,28.98 0,0.74 -0.05,1.48 -0.13,2.2z"/>
    <path class="fil1 str1" d="M745.1 1477.56l0 1220.58c0.08,1.56 0.12,3.15 0.12,4.75 0,34.58 -19.05,62.62 -42.54,62.62 -23.5,0 -42.54,-28.04 -42.54,-62.62 0,-1.6 0.04,-3.19 0.12,-4.75l0 -1220.58c-0.08,-1.57 -0.12,-3.16 -0.12,-4.76 0,-34.58 19.04,-62.61 42.54,-62.61 23.49,0 42.54,28.03 42.54,62.61 0,1.6 -0.04,3.19 -0.12,4.76z"/>
    <path class="fil1 str1" d="M860.24 1812.24l0 943.41c0.08,1.21 0.12,2.43 0.12,3.67 0,26.73 -19.05,48.4 -42.54,48.4 -23.5,0 -42.54,-21.67 -42.54,-48.4 0,-1.24 0.04,-2.46 0.12,-3.67l0 -943.41c-0.08,-1.21 -0.12,-2.44 -0.12,-3.68 0,-26.73 19.04,-48.39 42.54,-48.39 23.49,0 42.54,21.66 42.54,48.39 0,1.24 -0.04,2.47 -0.12,3.68z"/>
    <path class="fil1 str1" d="M975.12 1817.13l0 943.41c0.07,1.21 0.12,2.44 0.12,3.68 0,26.72 -19.05,48.39 -42.55,48.39 -23.49,0 -42.54,-21.67 -42.54,-48.39 0,-1.24 0.05,-2.47 0.12,-3.68l0 -943.41c-0.07,-1.21 -0.12,-2.44 -0.12,-3.67 0,-26.73 19.05,-48.4 42.54,-48.4 23.5,0 42.55,21.67 42.55,48.4 0,1.23 -0.05,2.46 -0.12,3.67z"/>
    <path class="fil1 str1" d="M1085.09 2194.89l0 554.11c0.08,0.71 0.12,1.43 0.12,2.15 0,15.7 -19.05,28.43 -42.54,28.43 -23.5,0 -42.54,-12.73 -42.54,-28.43 0,-0.72 0.04,-1.44 0.12,-2.15l0 -554.11c-0.08,-0.71 -0.12,-1.43 -0.12,-2.16 0,-15.7 19.04,-28.42 42.54,-28.42 23.49,0 42.54,12.72 42.54,28.42 0,0.73 -0.04,1.45 -0.12,2.16z"/>
    <path class="fil1 str1" d="M859.43 1211.74l0 258.12c0.08,0.33 0.12,0.67 0.12,1.01 0,7.31 -19.05,13.24 -42.54,13.24 -23.5,0 -42.54,-5.93 -42.54,-13.24 0,-0.34 0.04,-0.68 0.12,-1.01l0 -258.12c-0.08,-0.33 -0.12,-0.66 -0.12,-1 0,-7.31 19.04,-13.24 42.54,-13.24 23.49,0 42.54,5.93 42.54,13.24 0,0.34 -0.04,0.67 -0.12,1z"/>
    <path class="fil1 str1" d="M976.48 1041.79l0 258.11c0.08,0.34 0.12,0.67 0.12,1.01 0,7.31 -19.04,13.24 -42.54,13.24 -23.49,0 -42.54,-5.93 -42.54,-13.24 0,-0.34 0.04,-0.67 0.12,-1.01l0 -258.11c-0.08,-0.33 -0.12,-0.67 -0.12,-1.01 0,-7.31 19.05,-13.24 42.54,-13.24 23.5,0 42.54,5.93 42.54,13.24 0,0.34 -0.04,0.68 -0.12,1.01z"/>
    <path class="fil1 str1" d="M1089.04 868.45l0 258.12c0.08,0.33 0.12,0.67 0.12,1 0,7.32 -19.05,13.25 -42.54,13.25 -23.5,0 -42.54,-5.93 -42.54,-13.25 0,-0.33 0.04,-0.67 0.12,-1l0 -258.12c-0.08,-0.33 -0.12,-0.67 -0.12,-1 0,-7.32 19.04,-13.25 42.54,-13.25 23.49,0 42.54,5.93 42.54,13.25 0,0.33 -0.04,0.67 -0.12,1z"/>
    <path class="fil1 str1" d="M1206.1 626.49l0 429.82c0.08,0.55 0.12,1.11 0.12,1.68 0,12.17 -19.05,22.05 -42.54,22.05 -23.5,0 -42.54,-9.88 -42.54,-22.05 0,-0.57 0.04,-1.13 0.12,-1.68l0 -429.82c-0.08,-0.55 -0.12,-1.11 -0.12,-1.67 0,-12.18 19.04,-22.05 42.54,-22.05 23.49,0 42.54,9.87 42.54,22.05 0,0.56 -0.04,1.12 -0.12,1.67z"/>
    <path class="fil1 str1" d="M1169.61 460.06c23.5,0 42.54,19.04 42.54,42.54 0,23.49 -19.04,42.54 -42.54,42.54 -23.49,0 -42.54,-19.05 -42.54,-42.54 0,-23.5 19.05,-42.54 42.54,-42.54z"/>
    <path class="fil1 str1" d="M1323.15 674.49l0 333.1c0.08,0.43 0.12,0.86 0.12,1.3 0,9.44 -19.04,17.09 -42.54,17.09 -23.49,0 -42.54,-7.65 -42.54,-17.09 0,-0.44 0.04,-0.87 0.12,-1.3l0 -333.1c-0.08,-0.43 -0.12,-0.86 -0.12,-1.3 0,-9.43 19.05,-17.08 42.54,-17.08 23.5,0 42.54,7.65 42.54,17.08 0,0.44 -0.04,0.87 -0.12,1.3z"/>
    <path class="fil1 str1" d="M1441.34 420.48l0 531.16c0.08,0.68 0.12,1.37 0.12,2.07 0,15.05 -19.05,27.25 -42.54,27.25 -23.5,0 -42.54,-12.2 -42.54,-27.25 0,-0.7 0.04,-1.39 0.12,-2.07l0 -531.16c-0.08,-0.68 -0.12,-1.37 -0.12,-2.07 0,-15.05 19.04,-27.24 42.54,-27.24 23.49,0 42.54,12.19 42.54,27.24 0,0.7 -0.04,1.39 -0.12,2.07z"/>
    <path class="fil1 str1" d="M1557.27 619.83l0 329.44c0.08,0.42 0.12,0.85 0.12,1.28 0,9.33 -19.05,16.9 -42.54,16.9 -23.5,0 -42.54,-7.57 -42.54,-16.9 0,-0.43 0.04,-0.86 0.12,-1.28l0 -329.44c-0.08,-0.42 -0.12,-0.85 -0.12,-1.28 0,-9.34 19.04,-16.9 42.54,-16.9 23.49,0 42.54,7.56 42.54,16.9 0,0.43 -0.04,0.86 -0.12,1.28z"/>
    <path class="fil1 str1" d="M1670.95 673.09l0 254.43c0.08,0.32 0.12,0.65 0.12,0.99 0,7.21 -19.05,13.05 -42.54,13.05 -23.5,0 -42.54,-5.84 -42.54,-13.05 0,-0.34 0.04,-0.67 0.12,-0.99l0 -254.43c-0.08,-0.33 -0.12,-0.66 -0.12,-0.99 0,-7.21 19.04,-13.05 42.54,-13.05 23.49,0 42.54,5.84 42.54,13.05 0,0.33 -0.04,0.66 -0.12,0.99z"/>
    <path class="fil1 str1" d="M1629.96 497.2c23.5,0 42.54,19.04 42.54,42.54 0,23.49 -19.04,42.54 -42.54,42.54 -23.49,0 -42.54,-19.05 -42.54,-42.54 0,-23.5 19.05,-42.54 42.54,-42.54z"/>
    <path class="fil1 str1" d="M1784.63 700.79l0 226.04c0.08,0.29 0.12,0.58 0.12,0.88 0,6.4 -19.05,11.6 -42.54,11.6 -23.5,0 -42.54,-5.2 -42.54,-11.6 0,-0.3 0.04,-0.59 0.12,-0.88l0 -226.04c-0.08,-0.29 -0.12,-0.59 -0.12,-0.88 0,-6.41 19.04,-11.6 42.54,-11.6 23.49,0 42.54,5.19 42.54,11.6 0,0.29 -0.04,0.59 -0.12,0.88z"/>
    <path class="fil1 str1" d="M1906.19 644.29l0 303.59c0.08,0.39 0.12,0.78 0.12,1.18 0,8.6 -19.04,15.58 -42.54,15.58 -23.5,0 -42.54,-6.98 -42.54,-15.58 0,-0.4 0.04,-0.79 0.12,-1.18l0 -303.59c-0.08,-0.39 -0.12,-0.79 -0.12,-1.18 0,-8.61 19.04,-15.58 42.54,-15.58 23.5,0 42.54,6.97 42.54,15.58 0,0.39 -0.04,0.79 -0.12,1.18z"/>
    <path class="fil1 str1" d="M2018.75 784.77l0 187.52c0.08,0.25 0.12,0.49 0.12,0.73 0,5.32 -19.05,9.62 -42.54,9.62 -23.5,0 -42.55,-4.3 -42.55,-9.62 0,-0.24 0.05,-0.48 0.13,-0.73l0 -187.52c-0.08,-0.24 -0.13,-0.49 -0.13,-0.73 0,-5.31 19.05,-9.62 42.55,-9.62 23.49,0 42.54,4.31 42.54,9.62 0,0.24 -0.04,0.49 -0.12,0.73z"/>
    <path class="fil1 str1" d="M1904.28 403.86l0 153.57c0.08,0.2 0.12,0.4 0.12,0.6 0,4.35 -19.04,7.88 -42.54,7.88 -23.49,0 -42.54,-3.53 -42.54,-7.88 0,-0.2 0.04,-0.4 0.12,-0.6l0 -153.57c-0.08,-0.2 -0.12,-0.4 -0.12,-0.6 0,-4.35 19.05,-7.87 42.54,-7.87 23.5,0 42.54,3.52 42.54,7.87 0,0.2 -0.04,0.4 -0.12,0.6z"/>
    <path class="fil1 str1" d="M1554.8 76.88l0 196.78c0.08,0.25 0.12,0.51 0.12,0.77 0,5.57 -19.05,10.09 -42.54,10.09 -23.5,0 -42.54,-4.52 -42.54,-10.09 0,-0.26 0.04,-0.52 0.12,-0.77l0 -196.78c-0.08,-0.25 -0.12,-0.51 -0.12,-0.76 0,-5.58 19.04,-10.1 42.54,-10.1 23.49,0 42.54,4.52 42.54,10.1 0,0.25 -0.04,0.51 -0.12,0.76z"/>
    <path class="fil1 str1" d="M2136.93 703.77l0 308.02c0.08,0.4 0.12,0.8 0.12,1.2 0,8.73 -19.05,15.8 -42.54,15.8 -23.5,0 -42.54,-7.07 -42.54,-15.8 0,-0.4 0.04,-0.8 0.12,-1.2l0 -308.02c-0.08,-0.39 -0.12,-0.79 -0.12,-1.2 0,-8.72 19.04,-15.8 42.54,-15.8 23.49,0 42.54,7.08 42.54,15.8 0,0.41 -0.04,0.81 -0.12,1.2z"/>
    <path class="fil1 str1" d="M2252.86 816.91l0 257.33c0.08,0.33 0.12,0.67 0.12,1.01 0,7.29 -19.04,13.2 -42.54,13.2 -23.49,0 -42.54,-5.91 -42.54,-13.2 0,-0.34 0.04,-0.68 0.12,-1.01l0 -257.33c-0.08,-0.33 -0.12,-0.67 -0.12,-1.01 0,-7.29 19.05,-13.2 42.54,-13.2 23.5,0 42.54,5.91 42.54,13.2 0,0.34 -0.04,0.68 -0.12,1.01z"/>
    <path class="fil1 str1" d="M2252.86 590.1l0 144.95c0.08,0.19 0.12,0.37 0.12,0.56 0,4.11 -19.04,7.44 -42.54,7.44 -23.49,0 -42.54,-3.33 -42.54,-7.44 0,-0.19 0.04,-0.37 0.12,-0.56l0 -144.95c-0.08,-0.19 -0.12,-0.38 -0.12,-0.57 0,-4.11 19.05,-7.43 42.54,-7.43 23.5,0 42.54,3.32 42.54,7.43 0,0.19 -0.04,0.38 -0.12,0.57z"/>
    <path class="fil1 str1" d="M2369.29 867.25l0 262.03c0.08,0.34 0.12,0.68 0.12,1.02 0,7.43 -19.05,13.45 -42.54,13.45 -23.5,0 -42.54,-6.02 -42.54,-13.45 0,-0.34 0.04,-0.68 0.12,-1.02l0 -262.03c-0.08,-0.33 -0.12,-0.68 -0.12,-1.02 0,-7.42 19.04,-13.44 42.54,-13.44 23.49,0 42.54,6.02 42.54,13.44 0,0.34 -0.04,0.69 -0.12,1.02z"/>
    <path class="fil1 str1" d="M2484.1 1036.08l0 262.04c0.08,0.33 0.12,0.67 0.12,1.02 0,7.42 -19.05,13.44 -42.54,13.44 -23.5,0 -42.54,-6.02 -42.54,-13.44 0,-0.35 0.04,-0.69 0.12,-1.02l0 -262.04c-0.08,-0.33 -0.12,-0.67 -0.12,-1.02 0,-7.42 19.04,-13.44 42.54,-13.44 23.49,0 42.54,6.02 42.54,13.44 0,0.35 -0.04,0.69 -0.12,1.02z"/>
    <path class="fil1 str1" d="M2600.03 1204.07l0 262.03c0.08,0.34 0.12,0.68 0.12,1.03 0,7.42 -19.05,13.44 -42.54,13.44 -23.5,0 -42.54,-6.02 -42.54,-13.44 0,-0.35 0.04,-0.69 0.12,-1.03l0 -262.03c-0.08,-0.33 -0.12,-0.67 -0.12,-1.02 0,-7.42 19.04,-13.44 42.54,-13.44 23.49,0 42.54,6.02 42.54,13.44 0,0.35 -0.04,0.69 -0.12,1.02z"/>
    <path class="fil1 str1" d="M2750.41 1927.61l0 564.99c-0.08,0.73 -0.12,1.46 -0.12,2.2 0,16.01 19.86,28.99 44.36,28.99 24.49,0 44.35,-12.98 44.35,-28.99 0,-0.74 -0.04,-1.47 -0.12,-2.2l0 -564.99c0.08,-0.72 0.12,-1.46 0.12,-2.2 0,-16.01 -19.86,-28.98 -44.35,-28.98 -24.5,0 -44.36,12.97 -44.36,28.98 0,0.74 0.04,1.48 0.12,2.2z"/>
    <path class="fil1 str1" d="M2633.12 1470.8l0 1220.58c-0.08,1.57 -0.12,3.16 -0.12,4.76 0,34.58 19.86,62.61 44.35,62.61 24.5,0 44.36,-28.03 44.36,-62.61 0,-1.6 -0.04,-3.19 -0.12,-4.76l0 -1220.58c0.08,-1.56 0.12,-3.15 0.12,-4.75 0,-34.58 -19.86,-62.62 -44.36,-62.62 -24.49,0 -44.35,28.04 -44.35,62.62 0,1.6 0.04,3.19 0.12,4.75z"/>
    <path class="fil1 str1" d="M2513.06 1805.48l0 943.41c-0.08,1.21 -0.12,2.44 -0.12,3.68 0,26.72 19.86,48.39 44.36,48.39 24.5,0 44.36,-21.67 44.36,-48.39 0,-1.24 -0.05,-2.47 -0.13,-3.68l0 -943.41c0.08,-1.21 0.13,-2.44 0.13,-3.67 0,-26.73 -19.86,-48.4 -44.36,-48.4 -24.5,0 -44.36,21.67 -44.36,48.4 0,1.23 0.04,2.46 0.12,3.67z"/>
    <path class="fil1 str1" d="M2393.28 1810.38l0 943.41c-0.08,1.21 -0.13,2.44 -0.13,3.67 0,26.73 19.86,48.4 44.36,48.4 24.5,0 44.36,-21.67 44.36,-48.4 0,-1.23 -0.04,-2.46 -0.13,-3.67l0 -943.41c0.09,-1.21 0.13,-2.44 0.13,-3.68 0,-26.72 -19.86,-48.39 -44.36,-48.39 -24.5,0 -44.36,21.67 -44.36,48.39 0,1.24 0.05,2.47 0.13,3.68z"/>
    <path class="fil1 str1" d="M2278.61 2188.14l0 554.1c-0.08,0.71 -0.13,1.43 -0.13,2.16 0,15.7 19.86,28.42 44.36,28.42 24.5,0 44.36,-12.72 44.36,-28.42 0,-0.73 -0.04,-1.45 -0.13,-2.16l0 -554.1c0.09,-0.71 0.13,-1.44 0.13,-2.16 0,-15.7 -19.86,-28.43 -44.36,-28.43 -24.5,0 -44.36,12.73 -44.36,28.43 0,0.72 0.05,1.45 0.13,2.16z"/>
    <path class="fil1 str1" d="M2091.64 318.96c23.5,0 42.54,19.05 42.54,42.54 0,23.5 -19.04,42.54 -42.54,42.54 -23.49,0 -42.54,-19.04 -42.54,-42.54 0,-23.49 19.05,-42.54 42.54,-42.54z"/>
   </g>
   <path class="fil2 str1" d="M1911.4 2178.33c90.8,90.79 136.19,199.38 136.19,325.75 0,74.84 -25.46,138.64 -76.37,191.39 -50.92,52.76 -112.57,79.14 -184.96,79.14l-185.87 0c-61.35,0 -114.72,-19.02 -160.11,-57.05 51.53,57.66 116.55,86.49 195.07,86.49l184.04 0c73.61,0 135.88,-26.38 186.8,-79.13 50.91,-52.76 76.37,-115.94 76.37,-189.56 0,-79.75 -15.03,-146.92 -45.09,-201.52 -30.06,-54.59 -72.08,-106.43 -126.07,-155.51zm106.75 -299.97l-180.36 0 0 31.28 215.32 0 0 -156.43c0,-85.88 -34.96,-157.04 -104.9,-213.48 46.62,52.76 69.94,114.1 69.94,184.04l0 154.59zm-265.01 872.32c72.38,0 134.65,-26.68 186.79,-80.05 52.15,-53.37 78.22,-116.87 78.22,-190.48 0,-67.48 -12.27,-128.52 -36.81,-183.11 -24.54,-54.6 -55.21,-98.46 -92.02,-131.59 -36.8,-33.12 -76.99,-67.78 -120.54,-103.98 -43.56,-36.19 -83.74,-69.32 -120.54,-99.38 -36.81,-30.06 -67.48,-69.01 -92.02,-116.86 -24.54,-47.85 -36.81,-100.61 -36.81,-158.27 0,-29.44 9.82,-54.6 29.45,-75.45 19.63,-20.86 44.16,-31.29 73.61,-31.29l44.17 0c29.44,0 55.82,11.65 79.13,34.97 -20.85,-6.14 -36.19,-9.21 -46,-9.21l-42.33 0c-29.45,0 -54.9,10.43 -76.38,31.29 -21.47,20.86 -32.2,46.01 -32.2,75.46 0,104.28 49.68,200.59 149.07,288.93 -76.07,-72.39 -114.11,-158.88 -114.11,-259.49 0,-29.44 10.13,-54.29 30.37,-74.53 20.24,-20.25 45.09,-30.37 74.53,-30.37l44.17 0c13.5,0 23.31,1.23 29.45,3.68 7.36,12.27 11.04,27.61 11.04,46.01l0 165.63 213.48 0 0 -154.59c0,-73.61 -25.46,-136.8 -76.37,-189.55 -50.92,-52.76 -113.18,-79.14 -186.8,-79.14l-156.43 0c-71.16,0 -132.81,26.38 -184.96,79.14 -52.14,52.75 -78.21,115.94 -78.21,189.55 0,92.02 20.25,168.7 60.73,230.05 40.49,61.34 96.93,120.85 169.31,178.51 11.05,8.59 31.6,24.85 61.66,48.77 30.05,23.92 53.06,42.63 69.01,56.13 90.79,82.2 136.18,175.45 136.18,279.73 0,29.45 -10.12,54.91 -30.36,76.38 -20.24,21.47 -44.48,32.21 -72.69,32.21l-75.46 0c-3.68,0 -8.59,-0.92 -14.72,-2.77 -6.14,-1.84 -9.82,-2.76 -11.04,-2.76 -8.59,-12.27 -12.89,-28.21 -12.89,-47.85l0 -165.63 -34.96 0 0 134.35c0,24.54 9.81,49.08 29.44,73.61 -39.26,-17.17 -58.89,-49.69 -58.89,-97.54l0 -167.47 -215.32 0 0 156.43c0,73.61 26.07,137.11 78.21,190.48 52.15,53.37 113.8,80.05 184.96,80.05l185.88 0z"/>
  </g>
 </g>
</svg>
